<svg width="45" height="176" viewBox="0 0 45 176" fill="none" xmlns="http://www.w3.org/2000/svg">
<path d="M39.0428 1.22382C36.104 4.53 34.5525 9.08587 32.3531 12.8378C28.0039 20.257 25.8484 30.8593 25.6635 39.3641C25.4991 46.9263 24.4756 56.0448 29.0083 62.5921C31.5542 66.2696 34.2707 66.0298 38.4156 66.0298C42.5035 66.0298 44.06 62.5145 44.06 59.1311C44.06 57.6949 45.0538 56.8032 43.7348 55.4843C42.6911 54.4406 40.6428 54.741 39.2518 54.741C35.967 54.741 33.3288 60.1917 31.726 62.685C29.4795 66.1796 27.9448 69.3202 26.4997 73.2305C24.957 77.4048 24.6105 81.9608 23.9911 86.3311C23.2211 91.7636 22.7368 96.9131 22.7368 102.405" stroke="white" stroke-linecap="round"/>
<path d="M19.8358 101.615C20.7326 102.013 21.7812 102.673 22.7656 102.71C25.361 104.211 28.0249 105.746 28.7113 108.835C28.9838 110.061 29.2495 111.09 29.2495 112.399V115.324C29.2495 117.296 28.0319 118.592 27.1982 120.259C26.3793 121.897 24.7753 122.643 23.3088 123.458C21.7968 124.298 19.558 123.915 17.8251 123.915C15.8101 123.915 14.2224 123.592 12.3414 123.174C10.8163 122.835 9.45555 121.632 8.1372 120.899C6.77571 120.143 5.82285 118.435 4.79619 117.294C3.76525 116.149 3.03092 114.698 2.33867 113.313C1.4425 111.521 1.20139 109.52 1.63797 107.555C1.81228 106.771 1.53574 105.594 2.05433 104.946C2.44718 104.454 2.35874 103.093 2.83627 102.711C3.10419 102.497 3.20569 101.845 3.38464 101.523C3.60184 101.132 3.96216 100.97 4.29859 100.701C4.94079 100.187 5.922 99.8337 6.76627 99.7868C7.67541 99.7363 8.43389 99.4212 9.41674 99.4212H12.4328C13.3735 99.4212 14.3616 99.4131 15.266 99.6141C15.8181 99.7368 17.1006 100.048 17.5103 100.376C18.0236 100.786 19.1721 101.32 19.8358 101.615Z" fill="white"/>
<path d="M22.8519 102.711C21.8427 102.711 20.7588 102.025 19.8358 101.615C19.1721 101.32 18.0236 100.786 17.5103 100.376C17.1006 100.048 15.8181 99.7368 15.266 99.6141C14.3616 99.4131 13.3735 99.4212 12.4328 99.4212C11.4274 99.4212 10.4221 99.4212 9.41674 99.4212C8.43389 99.4212 7.6754 99.7363 6.76627 99.7868C5.922 99.8337 4.94079 100.187 4.29859 100.701C3.96216 100.97 3.60184 101.132 3.38464 101.523C3.20569 101.845 3.10419 102.497 2.83627 102.711C2.35874 103.093 2.44718 104.454 2.05433 104.946C1.53574 105.594 1.81228 106.771 1.63797 107.555C1.20139 109.52 1.4425 111.521 2.33867 113.313C3.03092 114.698 3.76525 116.149 4.79619 117.294C5.82285 118.435 6.77571 120.143 8.1372 120.899C9.45555 121.632 10.8163 122.835 12.3414 123.174C14.2224 123.592 15.8101 123.915 17.8251 123.915C19.558 123.915 21.7968 124.298 23.3088 123.458C24.7753 122.643 26.3793 121.897 27.1982 120.259C28.0319 118.592 29.2495 117.296 29.2495 115.324C29.2495 114.349 29.2495 113.374 29.2495 112.399C29.2495 111.09 28.9838 110.061 28.7113 108.835C27.8338 104.886 23.725 103.476 20.6584 101.432" stroke="white" stroke-linecap="round"/>
<path d="M24.3142 123.367C24.3142 124.555 24.3142 125.743 24.3142 126.931C24.3142 127.487 24.5295 127.913 24.6696 128.404C24.7731 128.766 24.6504 129.704 24.954 129.947C25.5 130.384 25.4004 132.515 25.5836 133.156C25.8804 134.195 25.608 135.588 25.1368 136.436C24.6314 137.346 24.0021 138.161 23.776 139.178C23.5273 140.297 22.9882 141.214 22.6793 142.296C22.0598 144.464 21.2068 146.321 21.2068 148.683C21.2068 148.968 22.2753 146.719 22.5269 146.439C22.8781 146.049 22.7331 145.222 23.0753 144.794C23.3711 144.424 23.7091 143.774 23.7659 143.291C23.819 142.84 24.2874 142.286 24.3142 141.829C24.3326 141.516 24.5265 140.467 24.7204 140.224C24.9681 139.915 25.6536 137.4 25.3703 137.117C25.2934 137.04 24.7057 139.024 24.6798 139.27C24.6138 139.897 24.0926 140.708 23.8065 141.28C23.0402 142.813 22.2972 144.311 21.613 145.85C21.3996 146.33 21.024 147.838 21.024 147.312C21.024 146.394 21.5247 145.611 21.5724 144.753C21.639 143.554 22.3629 142.34 22.8925 141.28C23.9777 139.11 23.9791 136.692 25.1368 134.608C25.3201 134.279 25.411 133.243 25.411 133.512C25.411 134.121 25.411 134.73 25.411 135.34C25.411 136.235 26.4408 137.608 27.1475 138.173C27.7644 138.666 28.481 140.464 28.691 141.199C28.9623 142.149 29.0462 143.437 29.5238 144.296C29.7484 144.701 29.8499 145.347 29.9706 145.769C30.0566 146.07 30.203 146.942 30.4377 147.13C31.0578 147.626 31.4431 149.726 31.4431 147.587C31.4431 147.163 31.1896 146.676 30.9353 146.358C30.6253 145.97 30.6841 145.376 30.4885 144.936C30.1164 144.099 29.6538 143.019 29.1074 142.336C28.4233 141.481 28.6947 139.978 27.9294 139.127C27.3518 138.486 26.7374 137.007 26.6905 136.162C26.6633 135.673 26.388 135.162 26.1828 134.7C25.9834 134.251 26.1133 133.567 25.8172 133.197C25.6927 133.041 25.4243 131.649 25.411 131.41C25.3955 131.132 25.3453 129.82 25.1876 129.622C24.853 129.204 25.1323 128.452 24.9032 127.937C24.6972 127.473 24.8626 126.615 24.8626 126.109C24.8626 125.299 24.9562 123.367 23.9486 123.367" stroke="white" stroke-linecap="round"/>
<path d="M24.6798 129.582C24.6798 132.115 25.9593 134.257 25.9593 136.802C25.9593 138.051 25.9593 139.3 25.9593 140.549C25.9593 141.79 25.6622 142.973 25.5938 144.205C25.4566 146.674 25.0454 149.056 25.0454 151.608C25.0454 154.224 25.5938 156.598 25.5938 159.194" stroke="white" stroke-linecap="round"/>
<path d="M26.1421 139.452C26.1421 141.497 26.5193 144.21 25.9695 146.134C25.7706 146.831 25.7765 147.982 25.7765 148.683C25.7765 149.592 25.5937 150.558 25.5937 151.517C25.5937 153.325 25.7765 155.193 25.7765 156.909C25.7765 157.482 25.9637 158.934 26.3655 159.336C26.5921 159.563 26.8733 157.331 26.8733 157.092C26.8733 156.294 26.5077 155.595 26.5077 154.715C26.5077 153.708 26.5384 152.696 26.8326 151.74C27.3486 150.063 27.4495 147.849 27.0662 146.124C26.8781 145.278 27.2135 144.159 26.7819 143.382C26.5257 142.921 26.7077 142.205 26.5483 141.686C26.4138 141.249 26.3249 140.634 26.3249 140.184C26.3249 139.797 26.2188 139.204 26.1319 138.813C25.9391 137.945 25.7906 138.294 25.5023 138.813C25.1606 139.428 25.2281 140.932 25.2281 141.646" stroke="white" stroke-linecap="round"/>
<path d="M25.7766 144.388C25.7766 145.563 26.1421 146.685 26.1421 147.861C26.1421 148.501 26.1421 149.14 26.1421 149.78C26.1421 150.939 26.1421 149.564 26.1421 149.14C26.1421 148.218 26.3549 146.407 26.9139 145.708C27.0989 145.477 27.1304 144.173 27.0459 144.469C26.8677 145.093 26.6905 145.781 26.6905 146.49C26.6905 148.034 26.3249 149.663 26.3249 151.253C26.3249 151.948 26.1421 152.531 26.1421 153.162C26.1421 153.814 26.1421 152.911 26.1421 152.715C26.1421 152.193 26.0587 151.585 26.1523 151.07C26.3851 149.789 26.1421 151.463 26.1421 151.882C26.1421 152.522 26.1421 153.162 26.1421 153.801C26.1421 154.441 26.1421 155.081 26.1421 155.721C26.1421 156.425 26.5077 157.028 26.5077 157.731" stroke="white" stroke-linecap="round"/>
<path d="M27.2389 156.818C27.2389 160.059 29.2545 162.573 29.4324 165.774C29.4745 166.533 29.7776 167.028 29.9706 167.704C30.096 168.143 30.3009 169.236 30.5697 169.572C30.9126 170.001 30.9097 171.087 31.3517 171.441C31.6229 171.658 32.0736 173.318 32.1641 173.726C32.2313 174.028 32.7128 175.279 33.0882 175.279C33.8015 175.279 32.6059 173.546 32.55 173.35C32.3691 172.717 32.0316 171.941 31.9914 171.258C31.9758 170.992 31.5487 169.588 31.3517 169.43C31.1066 169.234 30.733 167.595 30.7119 167.237C30.6787 166.673 30.2866 165.917 30.1534 165.317C29.9739 164.51 29.6719 163.796 29.2902 163.032C28.349 161.15 27.9077 158.987 27.0561 157" stroke="white" stroke-linecap="round"/>
<path d="M25.0454 159.742C24.9313 160.655 23.583 160.877 23.583 162.027C23.583 163.276 23.583 164.525 23.583 165.774C23.583 168.039 22.4863 169.876 22.4863 172.172C22.4863 172.381 22.3758 172.886 22.6691 172.903C22.8755 172.915 23.3835 173.005 23.4003 172.72C23.4379 172.08 23.583 171.479 23.583 170.801C23.583 169.646 24.1314 168.43 24.1314 167.237C24.1314 166.059 24.3142 164.746 24.3142 163.672C24.3142 162.554 24.2508 161.208 24.8626 160.291" stroke="white" stroke-linecap="round"/>
<path d="M24.1314 166.14C24.1314 166.933 24.3547 168.886 23.6744 169.43C23.0342 169.942 22.6691 171.597 22.6691 172.355" stroke="white" stroke-linecap="round"/>
<path d="M9.1651 110.364C9.52387 110.005 9.78569 109.638 10.1707 109.33C10.4944 109.071 10.6315 108.597 11.0039 108.41" stroke="black" stroke-width="2" stroke-linecap="round"/>
<path d="M8.93524 108.238C9.40567 108.473 9.89285 108.993 10.2441 109.387C10.6252 109.815 11.0588 110.189 11.4635 110.594" stroke="black" stroke-width="2" stroke-linecap="round"/>
<path d="M18.9 112.348C18.9887 111.46 20.1248 110.495 20.7229 109.862C21.1014 109.461 21.409 109.018 21.883 108.702" stroke="black" stroke-width="2" stroke-linecap="round"/>
<path d="M19.3972 108.867C19.3972 108.694 19.8645 109.382 19.9588 109.512C20.2129 109.864 20.5359 110.152 20.7598 110.525C20.9698 110.875 21.3648 110.98 21.5516 111.353" stroke="black" stroke-width="2" stroke-linecap="round"/>
</svg>
