<svg width="29" height="103" viewBox="0 0 29 103" fill="none" xmlns="http://www.w3.org/2000/svg">
<path d="M21.221 1.00676C17.5155 4.31294 15.5593 8.86881 12.7861 12.6207C7.30221 20.04 4.58429 30.6423 4.35117 39.1471C4.14389 46.7092 2.85336 55.8278 8.56864 62.375C11.7788 66.0525 15.2039 65.8128 20.4303 65.8128C25.5846 65.8128 27.5472 62.2975 27.5472 58.9141C27.5472 57.4779 28.8002 56.5862 27.1372 55.2673C25.8212 54.2236 23.2385 54.524 21.4846 54.524C17.3428 54.524 14.0163 59.9746 11.9953 62.4679C9.16273 65.9625 7.22767 69.1031 5.40554 73.0134C3.46036 77.1878 3.02343 81.7438 2.24244 86.114C1.27158 91.5466 0.660889 96.6961 0.660889 102.188" stroke="white" stroke-linecap="round"/>
</svg>
