<svg width="42" height="78" viewBox="0 0 42 78" fill="none" xmlns="http://www.w3.org/2000/svg">
<path d="M24.1529 3.20029C25.2836 3.59885 26.6058 4.2582 27.847 4.2954C31.1196 5.79619 34.4784 7.33146 35.344 10.4205C35.6876 11.6468 36.0226 12.6754 36.0226 13.985V16.9096C36.0226 18.8821 34.4873 20.1776 33.4361 21.845C32.4035 23.4828 30.3811 24.2291 28.532 25.0438C26.6255 25.8838 23.8026 25.5008 21.6176 25.5008C19.077 25.5008 17.075 25.1775 14.7032 24.7595C12.7803 24.4206 11.0645 23.2171 9.4022 22.4847C7.6855 21.7283 6.48404 20.0204 5.18954 18.8797C3.88963 17.7342 2.96372 16.2834 2.09087 14.8989C0.9609 13.1066 0.65688 11.1056 1.20736 9.141C1.42714 8.35663 1.07846 7.17938 1.73235 6.53115C2.22769 6.04008 2.11618 4.67906 2.71829 4.29704C3.0561 4.0827 3.18409 3.43101 3.40973 3.1089C3.68359 2.71794 4.13792 2.55549 4.56212 2.28634C5.37187 1.77258 6.60906 1.41929 7.6736 1.37239C8.81992 1.32188 9.77629 1.0068 11.0156 1.0068H14.8185C16.0047 1.0068 17.2505 0.998758 18.3909 1.19975C19.087 1.32244 20.704 1.63358 21.2207 1.96138C21.8679 2.372 23.3161 2.90533 24.1529 3.20029Z" fill="white"/>
<path d="M27.9558 4.29704C26.6834 4.29704 25.3167 3.61052 24.1529 3.20029C23.3161 2.90533 21.8679 2.372 21.2207 1.96138C20.704 1.63358 19.087 1.32244 18.3909 1.19975C17.2505 0.998758 16.0047 1.0068 14.8185 1.0068C13.5508 1.0068 12.2832 1.0068 11.0156 1.0068C9.77629 1.0068 8.81992 1.32188 7.6736 1.37239C6.60906 1.41929 5.37187 1.77258 4.56212 2.28634C4.13792 2.55549 3.68359 2.71794 3.40973 3.1089C3.18409 3.43101 3.0561 4.0827 2.71829 4.29704C2.11618 4.67906 2.22769 6.04008 1.73235 6.53115C1.07846 7.17938 1.42714 8.35663 1.20736 9.141C0.65688 11.1056 0.9609 13.1066 2.09087 14.8989C2.96372 16.2834 3.88963 17.7342 5.18954 18.8797C6.48404 20.0204 7.6855 21.7283 9.4022 22.4847C11.0645 23.2171 12.7803 24.4206 14.7032 24.7595C17.075 25.1775 19.077 25.5008 21.6176 25.5008C23.8026 25.5008 26.6255 25.8838 28.532 25.0438C30.3811 24.2291 32.4035 23.4828 33.4361 21.845C34.4873 20.1776 36.0226 18.8821 36.0226 16.9096C36.0226 15.9347 36.0226 14.9598 36.0226 13.985C36.0226 12.6754 35.6876 11.6468 35.344 10.4205C34.2375 6.47169 29.0568 5.06194 25.1901 3.0175" stroke="white" stroke-linecap="round"/>
<path d="M29.7995 24.9524C29.7995 26.1406 29.7995 27.3287 29.7995 28.5169C29.7995 29.0725 30.0709 29.4988 30.2477 29.9893C30.3781 30.3515 30.2234 31.2901 30.6062 31.5329C31.2946 31.9697 31.1691 34.1007 31.4001 34.7419C31.7743 35.7808 31.4308 37.1738 30.8367 38.022C30.1994 38.9317 29.406 39.7463 29.1209 40.7638C28.8073 41.8828 28.1276 42.8 27.738 43.8814C26.9569 46.0496 25.8814 47.9065 25.8814 50.269C25.8814 50.5535 27.2286 48.3043 27.5459 48.0247C27.9887 47.6345 27.8058 46.8074 28.2374 46.3796C28.6103 46.0099 29.0365 45.3591 29.1081 44.8766C29.175 44.4253 29.7656 43.8711 29.7995 43.4143C29.8227 43.1012 30.0672 42.0522 30.3117 41.8098C30.6239 41.5003 31.4883 38.9856 31.1312 38.7024C31.0341 38.6254 30.2931 40.6094 30.2605 40.8552C30.1772 41.4827 29.52 42.2938 29.1593 42.8659C28.1931 44.3985 27.2562 45.8963 26.3935 47.4357C26.1244 47.9159 25.6509 49.4235 25.6509 48.898C25.6509 47.9796 26.2823 47.1964 26.3423 46.339C26.4263 45.1399 27.3391 43.9251 28.0069 42.8659C29.3753 40.6955 29.377 38.2778 30.8367 36.1941C31.0678 35.8641 31.1824 34.8284 31.1824 35.0973C31.1824 35.7066 31.1824 36.3159 31.1824 36.9252C31.1824 37.8209 32.4809 39.1932 33.3719 39.7585C34.1498 40.252 35.0534 42.0495 35.3182 42.7847C35.6603 43.7342 35.766 45.0223 36.3682 45.882C36.6514 46.2864 36.7794 46.9321 36.9316 47.3545C37.04 47.6555 37.2247 48.5275 37.5206 48.7153C38.3024 49.2113 38.7882 51.3112 38.7882 49.1722C38.7882 48.7486 38.4686 48.2613 38.148 47.9435C37.7571 47.556 37.8313 46.962 37.5846 46.5218C37.1155 45.6846 36.5322 44.6051 35.8432 43.9221C34.9806 43.0669 35.3228 41.5634 34.3579 40.7131C33.6296 40.0713 32.8549 38.5928 32.7957 37.7478C32.7615 37.2585 32.4143 36.7472 32.1555 36.2855C31.9042 35.8369 32.0679 35.1527 31.6946 34.7825C31.5376 34.6269 31.1991 33.2345 31.1824 32.9952C31.1629 32.7173 31.0996 31.4052 30.9007 31.2079C30.4789 30.7898 30.8311 30.0377 30.5422 29.5222C30.2824 29.0587 30.491 28.2007 30.491 27.6943C30.491 26.8844 30.609 24.9524 29.3386 24.9524" stroke="white" stroke-linecap="round"/>
<path d="M30.2605 31.1673C30.2605 33.7005 31.8739 35.8427 31.8739 38.3876C31.8739 39.6367 31.8739 40.8857 31.8739 42.1348C31.8739 43.3755 31.4992 44.5582 31.4129 45.7906C31.2399 48.2599 30.7215 50.642 30.7215 53.1936C30.7215 55.8097 31.4129 58.1836 31.4129 60.7795" stroke="white" stroke-linecap="round"/>
<path d="M32.1043 41.038C32.1043 43.0824 32.5799 45.7955 31.8866 47.72C31.6358 48.4162 31.6433 49.5671 31.6433 50.2689C31.6433 51.1777 31.4129 52.144 31.4129 53.1022C31.4129 54.911 31.6433 56.7787 31.6433 58.4945C31.6433 59.0679 31.8794 60.5198 32.386 60.9216C32.6717 61.1482 33.0262 58.9164 33.0262 58.6773C33.0262 57.88 32.5653 57.1803 32.5653 56.301C32.5653 55.2936 32.6041 54.2817 32.975 53.3256C33.6255 51.6488 33.7528 49.4348 33.2695 47.7099C33.0323 46.8635 33.4552 45.745 32.911 44.968C32.588 44.507 32.8175 43.7903 32.6165 43.2721C32.4469 42.8349 32.3348 42.2196 32.3348 41.7692C32.3348 41.3824 32.2011 40.7893 32.0915 40.3982C31.8483 39.5304 31.6611 39.8794 31.2976 40.3982C30.8667 41.0133 30.9519 42.5175 30.9519 43.2315" stroke="white" stroke-linecap="round"/>
<path d="M31.6433 45.9734C31.6433 47.1488 32.1043 48.271 32.1043 49.4464C32.1043 50.0862 32.1043 50.7259 32.1043 51.3657C32.1043 52.5243 32.1043 51.1493 32.1043 50.7259C32.1043 49.804 32.3726 47.9922 33.0774 47.2935C33.3106 47.0623 33.3504 45.7588 33.2439 46.0546C33.0191 46.6784 32.7957 47.3664 32.7957 48.0755C32.7957 49.62 32.3347 51.2483 32.3347 52.8382C32.3347 53.5334 32.1043 54.1167 32.1043 54.7473C32.1043 55.3996 32.1043 54.4967 32.1043 54.3005C32.1043 53.7787 31.9991 53.1701 32.1171 52.6554C32.4106 51.3751 32.1043 53.0486 32.1043 53.4678C32.1043 54.1076 32.1043 54.7473 32.1043 55.3871C32.1043 56.0269 32.1043 56.6666 32.1043 57.3064C32.1043 58.0103 32.5652 58.6133 32.5652 59.3171" stroke="white" stroke-linecap="round"/>
<path d="M33.4876 58.4032C33.4876 61.6449 36.029 64.1582 36.2533 67.3599C36.3065 68.1189 36.6886 68.6139 36.932 69.2894C37.0901 69.7284 37.3484 70.8219 37.6874 71.1579C38.1197 71.5865 38.116 72.6729 38.6734 73.0265C39.0153 73.2434 39.5836 74.904 39.6977 75.3113C39.7824 75.6137 40.3896 76.8651 40.8629 76.8651C41.7623 76.8651 40.2548 75.1314 40.1843 74.9356C39.9562 74.3025 39.5307 73.5264 39.48 72.8437C39.4603 72.5777 38.9217 71.1734 38.6734 71.0158C38.3643 70.8197 37.8932 69.1803 37.8667 68.8223C37.8249 68.2584 37.3304 67.5023 37.1624 66.903C36.9361 66.0952 36.5553 65.3815 36.0741 64.6181C34.8873 62.7356 34.3308 60.573 33.2571 58.586" stroke="white" stroke-linecap="round"/>
<path d="M30.7212 61.3278C30.5773 62.2406 28.8774 62.463 28.8774 63.6127C28.8774 64.8618 28.8774 66.1108 28.8774 67.3599C28.8774 69.6244 27.4945 71.462 27.4945 73.7576C27.4945 73.9663 27.3551 74.4715 27.725 74.4887C27.9853 74.5009 28.6258 74.5907 28.6469 74.306C28.6944 73.6657 28.8774 73.0646 28.8774 72.3867C28.8774 71.2316 29.5688 70.0154 29.5688 68.8222C29.5688 67.6448 29.7993 66.3319 29.7993 65.2578C29.7993 64.1397 29.7194 62.7938 30.4907 61.8762" stroke="white" stroke-linecap="round"/>
<path d="M29.5689 67.7255C29.5689 68.5191 29.8505 70.4715 28.9927 71.0157C28.1855 71.5279 27.7251 73.1826 27.7251 73.9404" stroke="white" stroke-linecap="round"/>
<path d="M10.6978 11.9496C11.1501 11.5909 11.4802 11.2233 11.9657 10.9153C12.3738 10.6564 12.5467 10.1822 13.0162 9.99596" stroke="black" stroke-width="2" stroke-linecap="round"/>
<path d="M10.4084 9.82359C11.0016 10.0588 11.6159 10.5786 12.0588 10.9728C12.5393 11.4006 13.086 11.7748 13.5964 12.1795" stroke="black" stroke-width="2" stroke-linecap="round"/>
<path d="M22.9731 13.9333C23.0851 13.0457 24.5175 12.0807 25.2717 11.4475C25.7489 11.0467 26.1367 10.6034 26.7344 10.2874" stroke="black" stroke-width="2" stroke-linecap="round"/>
</svg>
